<svg xmlns="http://www.w3.org/2000/svg" width="418" height="96" viewBox="0 0 418 96" version="1.1"><path d="M 0 48.002 L 0 96.005 209.250 95.752 L 418.500 95.500 418.760 47.750 L 419.019 0 209.510 0 L 0 0 0 48.002 M 0.462 48.500 C 0.463 74.900, 0.592 85.556, 0.749 72.181 C 0.907 58.805, 0.907 37.205, 0.749 24.181 C 0.591 11.156, 0.462 22.100, 0.462 48.500 M 32.768 14 C 31.926 15.349, 30.436 16, 28.194 16 C 24.153 16, 21.412 17.362, 19.948 20.098 C 19.344 21.226, 18.213 27.854, 17.435 34.825 C 14.459 61.484, 15.064 63, 28.689 63 C 35.267 63, 37 63.301, 37 64.444 C 37 65.239, 38.067 67.129, 39.370 68.644 C 41.141 70.703, 42.652 71.400, 45.343 71.400 C 49.374 71.400, 54 67.887, 54 64.826 C 54 63.116, 55.332 63, 74.918 63 C 86.423 63, 96.661 62.709, 97.668 62.353 C 99.167 61.823, 99.273 61.951, 98.250 63.053 C 95.410 66.114, 97.455 71, 101.578 71 C 104.989 71, 106.591 68.404, 105.296 64.974 C 104.238 62.169, 104.293 62.101, 107.857 61.804 C 110.760 61.562, 111.565 61.043, 111.820 59.250 C 112.025 57.804, 112.829 57, 114.070 57 C 115.609 57, 116 56.291, 116 53.500 C 116 50.181, 115.823 50, 112.573 50 C 110.108 50, 108.593 50.702, 107.179 52.500 C 103.877 56.698, 102.226 55.750, 101.515 49.250 C 100.222 37.426, 92.712 21.625, 86.621 17.911 C 84.899 16.861, 81.664 16.006, 79.405 16.004 C 76.583 16.001, 74.747 15.378, 73.500 14 C 71.812 12.135, 70.420 12, 52.853 12 C 35.100 12, 33.945 12.115, 32.768 14 M 24.313 19.762 C 22.241 21.121, 21.194 25.394, 20.558 35.083 C 20.219 40.263, 19.700 47.251, 19.405 50.614 C 18.681 58.887, 19.841 60, 29.189 60 C 35.593 60, 36.548 59.726, 39.653 57 C 43.238 53.852, 45.840 53.309, 49.066 55.035 C 50.913 56.024, 51 55.656, 51 46.813 C 51 38.149, 50.900 37.697, 49.443 39.777 C 47.984 41.861, 47.147 42, 36.066 42 C 22.115 42, 21.760 41.778, 22.198 33.334 L 22.500 27.500 35.771 27.221 C 48.772 26.947, 49.062 26.988, 49.958 29.221 C 50.853 31.449, 50.875 31.439, 50.937 28.807 C 51.031 24.798, 54.349 23, 61.651 23 C 71.021 23, 71 22.955, 71 43.071 L 71 60 83.345 60 C 99.899 60, 100.619 59.236, 97.610 44.855 C 96.059 37.441, 90.205 25.482, 86.357 21.864 C 83.846 19.503, 83.800 19.500, 54.671 19.241 C 38.627 19.099, 24.966 19.333, 24.313 19.762 M 60.823 33.862 C 61.123 41.235, 60.991 41.868, 59.025 42.492 C 57.840 42.868, 56.264 42.634, 55.452 41.960 C 54.252 40.964, 54 41.168, 54 43.137 C 54 45.145, 54.495 45.518, 57.155 45.510 C 58.890 45.504, 60.502 46.063, 60.738 46.750 C 61.029 47.597, 60.012 48, 57.583 48 L 54 48 54 54 L 54 60 61.024 60 L 68.048 60 67.774 43.250 L 67.500 26.500 64 26.202 L 60.500 25.904 60.823 33.862 M 73.647 29.416 C 71.429 32.801, 71.574 36.188, 74.073 39.365 C 79.803 46.651, 91.811 37.599, 86.280 30.163 C 84.733 28.083, 83.312 27.435, 79.796 27.201 C 75.919 26.944, 75.065 27.251, 73.647 29.416 M 79.114 34.315 C 76.140 39.127, 76.474 40.054, 79.549 35.522 C 80.952 33.456, 81.903 31.570, 81.663 31.330 C 81.424 31.091, 80.277 32.434, 79.114 34.315 M 133.213 39.122 C 129.053 41.807, 127 45.754, 127 51.068 C 127 54.575, 127.615 55.850, 130.882 59.118 C 134.434 62.669, 135.222 62.999, 140.132 62.985 C 145.858 62.970, 149.642 61.559, 151.366 58.798 C 153.017 56.155, 151.249 55.424, 148.746 57.714 C 145.653 60.545, 142.687 61.270, 139.725 59.921 C 136.565 58.481, 135 55.087, 135 49.675 C 135 42.122, 140.403 37.605, 145.985 40.492 C 147.565 41.310, 149.145 42.883, 149.497 43.989 C 150.594 47.447, 152 46.189, 151.999 41.750 L 151.997 37.500 144.249 37.250 C 137.780 37.041, 135.957 37.350, 133.213 39.122 M 225.750 38.220 C 227.875 39.246, 228 39.898, 228 50 C 228 60.097, 227.874 60.756, 225.750 61.798 C 223.999 62.657, 226.162 62.857, 235.500 62.701 L 247.500 62.500 247.810 58.750 C 248.135 54.826, 246.580 53.597, 245.520 56.938 C 244.847 59.056, 238.793 61.518, 236.459 60.623 C 235.479 60.247, 235 58.584, 235 55.563 C 235 51.962, 235.302 51.178, 236.509 51.642 C 237.338 51.960, 238.287 53.296, 238.617 54.610 C 239.784 59.261, 241 56.908, 241 50 C 241 43.092, 239.784 40.739, 238.617 45.390 C 238.287 46.704, 237.338 48.040, 236.509 48.358 C 235.285 48.828, 235 47.973, 235 43.844 L 235 38.750 238.155 39.381 C 241.841 40.118, 244 41.685, 244 43.622 C 244 44.380, 244.675 45, 245.500 45 C 246.583 45, 247 43.889, 247 41 L 247 37 235.250 37.068 C 226.051 37.121, 223.988 37.371, 225.750 38.220 M 289.800 38.200 C 291.446 39.846, 291.446 60.154, 289.800 61.800 C 288.867 62.733, 289.922 62.982, 294.550 62.921 C 297.822 62.878, 299.938 62.615, 299.250 62.338 C 298.344 61.972, 298 58.414, 298 49.417 L 298 37 293.300 37 C 289.644 37, 288.867 37.267, 289.800 38.200 M 156.023 46.977 C 153.513 49.487, 154.427 51.997, 157.857 52.011 L 160.500 52.022 157.250 54.584 C 153.865 57.252, 153.154 59.754, 155.200 61.800 C 156.747 63.347, 161.253 63.347, 162.800 61.800 C 163.733 60.867, 164 60.867, 164 61.800 C 164 63.520, 169.520 63.284, 171 61.500 C 171.860 60.464, 171.898 60, 171.122 60 C 170.419 60, 170 57.788, 170 54.071 C 170 46.736, 168.551 45, 162.429 45 C 159.350 45, 157.397 45.603, 156.023 46.977 M 173.500 54.042 L 173.500 63 188.950 63 C 200.967 63, 204.133 62.733, 203.200 61.800 C 202.539 61.139, 202 57.963, 202 54.734 C 202 47.112, 200.843 45, 196.665 45 C 194.869 45, 192.879 45.521, 192.242 46.158 C 191.430 46.970, 190.700 47.004, 189.792 46.270 C 189.082 45.695, 185.125 45.193, 181 45.154 L 173.500 45.083 173.500 54.042 M 203.750 45.662 C 204.651 46.026, 205 49.469, 205 58 C 205 66.531, 204.651 69.974, 203.750 70.338 C 203.063 70.615, 205.425 70.864, 209 70.891 C 213.876 70.927, 215.063 70.685, 213.750 69.920 C 212.633 69.270, 212 67.686, 212 65.544 C 212 62.689, 212.296 62.265, 213.984 62.706 C 219.207 64.072, 223 60.362, 223 53.887 C 223 50.706, 221.448 46.999, 219.600 45.765 C 218.995 45.361, 214.900 45.059, 210.500 45.094 C 206.100 45.129, 203.063 45.385, 203.750 45.662 M 250.709 47.250 C 251.840 48.487, 253.517 50.985, 254.434 52.799 L 256.102 56.098 252.651 59.549 L 249.200 63 258.578 63 L 267.956 63 264.978 58.304 C 261.320 52.535, 261.287 51.354, 264.687 47.805 L 267.374 45 258.013 45 L 248.651 45 250.709 47.250 M 268.800 46.200 C 270.446 47.846, 270.446 68.154, 268.800 69.800 C 267.867 70.733, 269.033 70.993, 274.050 70.970 C 278.920 70.947, 280.071 70.689, 278.750 69.920 C 277.709 69.314, 277 67.705, 277 65.950 C 277 63.292, 277.321 62.998, 280.250 62.985 C 284.060 62.967, 285.288 62.284, 286.850 59.316 C 289.025 55.184, 287.818 47.914, 284.600 45.765 C 283.995 45.361, 279.923 45.024, 275.550 45.015 C 269.367 45.003, 267.867 45.267, 268.800 46.200 M 302.073 47.635 C 300.817 49.231, 300 51.740, 300 54 C 300 59.722, 303.096 63, 308.500 63 C 313.904 63, 317 59.722, 317 54 C 317 48.278, 313.904 45, 308.500 45 C 304.986 45, 303.745 45.509, 302.073 47.635 M 319.500 54 L 319.500 63 325 62.970 C 329.224 62.946, 330.094 62.703, 328.750 61.920 C 327.577 61.237, 327.005 59.680, 327.014 57.200 C 327.038 50.622, 327.817 49.209, 331.337 49.362 C 333.879 49.473, 334.500 49.107, 334.500 47.500 C 334.500 45.131, 330.659 44.208, 328.445 46.046 C 327.422 46.895, 327 46.917, 327 46.122 C 327 45.492, 325.356 45, 323.250 45 L 319.500 45 319.500 54 M 337.073 47.635 C 335.695 49.386, 335 51.733, 335 54.635 C 335 60.144, 337.561 63, 342.500 63 C 344.667 63, 346.762 62.238, 348 61 C 351.334 57.666, 350.346 55.472, 346.910 58.581 C 345.308 60.031, 344.990 59.990, 343.081 58.081 C 339.520 54.520, 340.365 53, 345.906 53 C 350.490 53, 350.777 52.852, 350.265 50.750 C 349.318 46.855, 346.948 45, 342.918 45 C 340.033 45, 338.657 45.620, 337.073 47.635 M 160.783 46.551 C 160.510 46.824, 160.498 48.156, 160.758 49.512 C 161.288 52.287, 163 51.896, 163 49 C 163 47.091, 161.690 45.644, 160.783 46.551 M 259 46.941 C 259 47.459, 259.450 48.160, 260 48.500 C 260.550 48.840, 261 48.416, 261 47.559 C 261 46.702, 260.550 46, 260 46 C 259.450 46, 259 46.423, 259 46.941 M 307.481 47.188 C 306.551 49.613, 307.397 61.500, 308.500 61.500 C 309.841 61.500, 310.372 47.972, 309.082 46.682 C 308.393 45.993, 307.877 46.157, 307.481 47.188 M 213.160 48.240 C 211.536 49.864, 211.675 59.485, 213.342 60.869 C 215.422 62.595, 216 61.188, 216 54.392 C 216 47.950, 215.195 46.205, 213.160 48.240 M 341.667 47.667 C 340.127 49.206, 341.056 52, 343.107 52 C 344.617 52, 345.042 51.552, 344.607 50.418 C 344.273 49.548, 344 48.423, 344 47.918 C 344 46.849, 342.632 46.701, 341.667 47.667 M 182.103 49.376 C 180.316 51.529, 181.054 61.500, 183 61.500 C 184.129 61.500, 184.575 60.043, 184.804 55.604 C 185.129 49.313, 184.108 46.960, 182.103 49.376 M 277.688 48.646 C 276.327 50.007, 276.957 59.719, 278.488 60.990 C 280.541 62.694, 281.197 60.705, 280.807 53.959 C 280.522 49.034, 279.330 47.004, 277.688 48.646 M 192 55.583 C 192 60.403, 192.335 62.056, 193.250 61.754 C 194.024 61.498, 194.613 58.991, 194.798 55.171 C 195.040 50.139, 194.810 49, 193.548 49 C 192.307 49, 192 50.308, 192 55.583 M 161.750 54.572 C 161.338 54.991, 161 56.473, 161 57.867 C 161 59.687, 161.305 60.095, 162.085 59.315 C 162.681 58.719, 163.019 57.236, 162.835 56.020 C 162.651 54.805, 162.162 54.153, 161.750 54.572 M 256 60.500 C 256 61.417, 256.484 62.005, 257.075 61.808 C 257.666 61.611, 258.150 61.023, 258.150 60.500 C 258.150 59.977, 257.666 59.389, 257.075 59.192 C 256.484 58.995, 256 59.583, 256 60.500 M 43.500 62 C 42.663 63.354, 43.792 65, 45.559 65 C 46.352 65, 47 64.100, 47 63 C 47 60.930, 44.587 60.240, 43.500 62 M 169.139 77.589 C 167.962 80.663, 167 83.813, 167 84.589 C 167 86.349, 171.655 86.491, 172.286 84.750 C 172.648 83.750, 173.162 83.750, 174.856 84.750 C 177.545 86.338, 181 86.366, 181 84.800 C 181 83.867, 181.267 83.867, 182.200 84.800 C 182.912 85.512, 186.341 86, 190.634 86 C 197.757 86, 197.873 85.958, 198.284 83.250 L 198.700 80.500 198.850 83.250 C 198.970 85.456, 199.482 86, 201.434 86 C 203.321 86, 203.961 85.383, 204.284 83.250 L 204.700 80.500 204.850 83.250 C 204.999 85.990, 205.027 86, 212.434 86 C 219.775 86, 219.872 85.966, 220.284 83.250 L 220.700 80.500 220.850 83.250 C 220.972 85.494, 221.470 86, 223.557 86 C 225.948 86, 226.095 85.722, 225.807 81.750 L 225.500 77.500 209.250 77.500 L 192.999 77.500 193 74.750 C 193 72.483, 192.561 72, 190.500 72 C 188.500 72, 188 72.500, 188 74.500 C 188 76.466, 187.492 77, 185.622 77 C 182.986 77, 181.404 78.485, 180.848 81.479 C 180.607 82.775, 179.808 81.481, 178.533 77.729 C 176.819 72.685, 176.268 72, 173.932 72 C 171.631 72, 170.993 72.745, 169.139 77.589 M 231 79 L 231 86 234 86 C 236 86, 237 85.500, 237 84.500 C 237 83.576, 237.938 83, 239.441 83 C 240.784 83, 242.185 82.510, 242.555 81.912 C 242.964 81.249, 243.682 81.738, 244.390 83.162 C 245.435 85.263, 246.327 85.529, 253.206 85.791 L 260.859 86.082 261.280 83.291 L 261.700 80.500 261.850 83.250 C 261.971 85.477, 262.476 86, 264.500 86 C 265.875 86, 267 85.460, 267 84.800 C 267 83.867, 267.267 83.867, 268.200 84.800 C 268.898 85.498, 272.244 86, 276.200 86 L 283 86 283 79 C 283 72.200, 282.929 72, 280.500 72 C 278.284 72, 278 72.420, 278 75.700 C 278 78.578, 277.733 79.133, 276.800 78.200 C 275.322 76.722, 269.357 76.614, 268.470 78.049 C 268.045 78.737, 267.417 78.761, 266.645 78.120 C 265.061 76.805, 246.864 76.868, 245.266 78.194 C 244.304 78.993, 244 78.664, 244 76.822 C 244 73.166, 242.138 72, 236.300 72 L 231 72 231 79 M 210 74.500 C 210 75.433, 210.944 76, 212.500 76 C 214.056 76, 215 75.433, 215 74.500 C 215 73.567, 214.056 73, 212.500 73 C 210.944 73, 210 73.567, 210 74.500 M 18.557 76.223 C 16.362 79.355, 16.621 82.296, 19.314 84.826 C 22.228 87.563, 26.136 87.612, 28.552 84.943 L 30.414 82.886 31.175 84.943 C 32.050 87.310, 35 87.740, 35 85.500 C 35 84.675, 35.402 84, 35.893 84 C 36.384 84, 37.045 84.675, 37.362 85.500 C 38.224 87.749, 40.941 87.306, 41.969 84.750 L 42.873 82.500 42.937 84.750 C 43.009 87.314, 45.738 87.846, 46.648 85.474 C 47.100 84.298, 47.550 84.212, 48.617 85.097 C 49.663 85.965, 50.365 85.942, 51.500 85 C 52.733 83.977, 53 84.056, 53 85.447 C 53 86.630, 53.677 87.043, 55.250 86.820 C 57.298 86.529, 57.500 85.961, 57.500 80.500 C 57.500 74.798, 57.372 74.485, 54.925 74.200 C 53.041 73.981, 52.077 74.512, 51.333 76.180 L 50.316 78.459 49.123 76.229 C 48.384 74.849, 46.991 74, 45.465 74 C 43.367 74, 42.988 74.484, 42.921 77.250 C 42.878 79.037, 42.594 79.825, 42.291 79 C 41.176 75.970, 38.617 74, 35.794 74 C 33.429 74, 32.630 74.642, 31.436 77.500 C 30.631 79.425, 29.474 81, 28.864 81 C 28.091 81, 28.116 80.566, 28.947 79.564 C 29.832 78.498, 29.854 77.596, 29.034 76.064 C 27.429 73.065, 20.697 73.167, 18.557 76.223 M 59 80.500 C 59 86.367, 59.198 87, 61.031 87 C 62.149 87, 63.318 86.336, 63.629 85.525 C 63.940 84.713, 65.476 83.410, 67.041 82.629 C 69.792 81.257, 69.898 81.298, 70.194 83.846 C 70.534 86.776, 73.708 88.068, 75.115 85.848 C 75.585 85.107, 75.976 82.348, 75.985 79.719 C 76.001 74.471, 74.224 72.754, 70.914 74.822 C 69.755 75.546, 68.873 75.603, 68.487 74.980 C 68.154 74.441, 65.884 74, 63.441 74 L 59 74 59 80.500 M 77 80.500 C 77 85.670, 77.313 87, 78.531 87 C 79.374 87, 80.315 86.342, 80.624 85.538 C 81.111 84.269, 81.504 84.284, 83.585 85.648 C 86.277 87.412, 89 86.851, 89 84.531 C 89 83.312, 89.408 83.408, 91 85 C 93.404 87.404, 98.248 87.609, 100.455 85.402 C 101.609 84.249, 101.885 82.786, 101.449 80.152 C 100.464 74.207, 100.284 74, 96.088 74 C 93.114 74, 91.721 74.560, 90.557 76.223 L 89 78.445 89 76.223 C 89 74.667, 88.400 74, 87 74 C 85.613 74, 85 74.667, 85 76.174 L 85 78.349 82.686 76.174 C 78.387 72.136, 77 73.191, 77 80.500 M 236 77.500 C 236 79.189, 236.458 80.014, 237.250 79.750 C 237.938 79.521, 238.500 78.508, 238.500 77.500 C 238.500 76.492, 237.938 75.479, 237.250 75.250 C 236.458 74.986, 236 75.811, 236 77.500 M 35.583 78.866 C 35.152 79.563, 35.070 80.403, 35.400 80.733 C 36.295 81.628, 37.271 80.312, 36.787 78.862 C 36.449 77.846, 36.213 77.846, 35.583 78.866 M 23.257 80 C 23.482 80.825, 24.528 81.605, 25.583 81.732 C 26.930 81.896, 27.054 81.777, 26 81.332 C 25.175 80.985, 24.128 80.205, 23.674 79.600 C 23.143 78.893, 22.994 79.035, 23.257 80 M 272.500 83 C 272.840 83.550, 274.216 84, 275.559 84 C 276.902 84, 278 83.550, 278 83 C 278 82.450, 276.623 82, 274.941 82 C 273.156 82, 272.139 82.417, 272.500 83" stroke="none" fill="#ffffff" fill-rule="evenodd"/><path d="M 33.290 15 C 32.870 16.606, 31.926 17, 28.494 17 C 25.833 17, 23.363 17.695, 21.946 18.843 C 19.343 20.951, 18.562 25.663, 17.445 46 C 16.586 61.648, 16.679 61.777, 29.030 62.206 C 36.925 62.480, 37.522 62.651, 37.817 64.730 C 38.209 67.491, 42.509 71, 45.500 71 C 48.491 71, 52.791 67.491, 53.183 64.730 C 53.498 62.515, 53.656 62.497, 76.166 62 L 98.831 61.500 98.666 65.361 C 98.466 70.012, 100.799 72.241, 103.512 69.990 C 104.773 68.944, 105.042 67.665, 104.593 64.859 C 103.998 61.138, 104.013 61.120, 107.748 60.810 C 110.704 60.566, 111.565 60.044, 111.806 58.352 C 111.975 57.171, 113.026 55.965, 114.143 55.673 C 115.445 55.332, 116.048 54.489, 115.823 53.321 C 115.268 50.437, 108.805 50.801, 107.500 53.791 C 106.776 55.449, 105.810 56.001, 104 55.791 C 101.740 55.528, 101.430 54.924, 100.768 49.500 C 99.741 41.072, 97.489 34.575, 92.886 26.754 C 88.504 19.310, 85.265 17, 79.205 17 C 76.580 17, 74.720 16.348, 73.500 15 C 71.811 13.134, 70.420 13, 52.751 13 C 34.654 13, 33.790 13.089, 33.290 15 M 24.239 18.644 C 21.815 19.663, 21.124 22.738, 19.443 39.996 L 17.749 57.378 19.985 59.189 C 21.688 60.568, 23.966 61, 29.534 61 C 36.382 61, 37.043 60.803, 39.955 57.891 C 43.083 54.763, 45.489 54.430, 50.250 56.466 C 51.874 57.160, 52 56.092, 52 41.664 C 52 26.728, 52.088 26.052, 54.223 24.557 C 55.488 23.670, 58.521 23, 61.268 23 C 65.055 23, 66.618 23.527, 68.545 25.455 C 70.954 27.863, 71 28.221, 71 44.455 L 71 61 83.500 61 C 94.832 61, 96.195 60.805, 98.082 58.918 C 99.864 57.136, 100.071 56.088, 99.516 51.668 C 98.017 39.746, 92.416 26.541, 86.508 21 L 83.842 18.500 54.671 18.307 C 38.627 18.201, 24.932 18.353, 24.239 18.644 M 54.547 26.596 C 53.193 27.949, 52.993 30.641, 53.226 44.346 L 53.500 60.500 61.250 60.792 L 69 61.084 69 44.242 C 69 32.476, 68.638 27.038, 67.800 26.200 C 65.991 24.391, 56.467 24.676, 54.547 26.596 M 23.557 29.223 C 21.767 31.778, 21.530 36.253, 23.035 39.066 C 23.970 40.812, 25.229 41, 36 41 C 47.174 41, 48.002 40.864, 49.077 38.856 C 50.475 36.244, 49.653 29.030, 47.826 27.871 C 47.097 27.409, 41.688 27.024, 35.807 27.015 C 25.881 27.001, 25.002 27.160, 23.557 29.223 M 55 34.500 C 55 41.833, 55.056 42, 57.500 42 C 59.944 42, 60 41.833, 60 34.500 C 60 27.167, 59.944 27, 57.500 27 C 55.056 27, 55 27.167, 55 34.500 M 75.189 29.039 C 72.447 31.593, 72.258 37.018, 74.829 39.345 C 77.345 41.622, 82.555 41.445, 85 39 C 87.703 36.297, 87.518 32.428, 84.545 29.455 C 81.557 26.466, 78.114 26.313, 75.189 29.039 M 26.687 31.805 C 23.710 34.912, 22.796 38.245, 25.547 35.961 C 27.854 34.046, 31.267 29, 30.255 29 C 29.771 29, 28.165 30.262, 26.687 31.805 M 35.084 33.750 C 31.098 38.401, 30.245 40, 31.750 40 C 32.430 40, 36.480 35.374, 39.807 30.798 C 42.591 26.967, 38.944 29.247, 35.084 33.750 M 78.750 33.357 C 75.799 38.029, 75.482 39, 76.913 39 C 78.244 39, 84.026 30.852, 83.407 29.849 C 82.439 28.283, 81.516 28.978, 78.750 33.357 M 44.226 34.869 C 40.847 39.073, 40.423 40, 41.881 40 C 43.178 40, 48.206 33.117, 47.799 31.898 C 47.608 31.324, 46 32.661, 44.226 34.869 M 228.378 50 C 228.378 56.325, 228.541 58.912, 228.739 55.750 C 228.937 52.587, 228.937 47.412, 228.739 44.250 C 228.541 41.087, 228.378 43.675, 228.378 50 M 55 47 C 55 47.550, 56.125 48, 57.500 48 C 58.875 48, 60 47.550, 60 47 C 60 46.450, 58.875 46, 57.500 46 C 56.125 46, 55 46.450, 55 47 M 110.250 52.662 C 108.917 53.200, 108.490 56.022, 109.750 55.968 C 111.166 55.908, 113.969 53.302, 113.318 52.651 C 112.592 51.925, 112.073 51.927, 110.250 52.662 M 43.390 61.426 C 42.480 63.797, 43.767 66.191, 45.747 65.810 C 46.854 65.597, 47.500 64.561, 47.500 63 C 47.500 60.149, 44.344 58.941, 43.390 61.426 M 171.504 73.750 C 171.114 74.713, 169.965 77.862, 168.951 80.750 C 167.137 85.916, 167.139 86, 169.054 86 C 170.124 86, 171 85.550, 171 85 C 171 83.653, 175.324 83.724, 176.694 85.094 C 177.295 85.695, 178.455 86.033, 179.271 85.844 C 180.503 85.558, 180.310 84.356, 178.135 78.750 C 175.473 71.889, 173.011 70.033, 171.504 73.750 M 189 74.861 C 189 77.335, 188.678 77.661, 186.622 77.268 C 184.943 76.947, 183.771 77.489, 182.635 79.110 C 180.198 82.590, 182.466 85.442, 187.869 85.690 L 192 85.879 192 78.940 C 192 73.438, 191.689 72, 190.500 72 C 189.516 72, 189 72.985, 189 74.861 M 232 79 C 232 85.333, 232.190 86, 234 86 C 235.111 86, 236 85.333, 236 84.500 C 236 83.601, 236.922 83, 238.300 83 C 241.486 83, 243 81.175, 243 77.335 C 243 73.511, 240.894 72, 235.566 72 L 232 72 232 79 M 279 79 C 279 84.556, 279.310 86, 280.500 86 C 281.690 86, 282 84.556, 282 79 C 282 73.444, 281.690 72, 280.500 72 C 279.310 72, 279 73.444, 279 79 M 211 74.500 C 211 75.325, 211.675 76, 212.500 76 C 213.325 76, 214 75.325, 214 74.500 C 214 73.675, 213.325 73, 212.500 73 C 211.675 73, 211 73.675, 211 74.500 M 22 74.694 C 17.963 76.137, 16.745 81.554, 19.829 84.345 C 21.968 86.281, 26.084 86.516, 27.800 84.800 C 29.698 82.902, 29.204 81.911, 26.676 82.545 C 23.989 83.220, 21.458 80.856, 22.357 78.513 C 23.209 76.291, 25 76.670, 25 79.073 C 25 81.937, 28.398 81.197, 28.819 78.241 C 29.055 76.591, 28.447 75.740, 26.504 75.002 C 25.055 74.451, 23.787 74.036, 23.685 74.079 C 23.583 74.122, 22.825 74.399, 22 74.694 M 94 74.704 C 89.968 76.118, 88.744 81.553, 91.829 84.345 C 95.390 87.567, 102.135 85.400, 100.643 81.513 C 99.877 79.515, 97.334 79.581, 96.188 81.628 C 94.977 83.793, 93.642 81.704, 94.503 78.991 C 95.152 76.946, 97 76.212, 97 78 C 97 79.344, 99.710 79.278, 100.554 77.913 C 101.783 75.923, 97.084 73.622, 94 74.704 M 32.007 76.988 C 30.363 80.058, 31.117 85.411, 33.250 85.815 C 34.316 86.017, 35 85.531, 35 84.573 C 35 82.572, 36.879 82.520, 37.638 84.500 C 38.576 86.944, 40.726 86.212, 41.304 83.250 C 42.143 78.960, 40.031 75.553, 36.309 75.192 C 33.911 74.959, 32.857 75.398, 32.007 76.988 M 43.402 76.395 C 43.108 77.162, 43.009 79.490, 43.183 81.568 C 43.561 86.075, 45.989 87.585, 46.022 83.333 L 46.044 80.500 48.035 83 C 49.908 85.353, 50.105 85.396, 51.390 83.727 C 52.682 82.047, 52.783 82.061, 53.284 83.977 C 53.575 85.090, 54.530 86, 55.406 86 C 56.671 86, 57 84.866, 57 80.500 C 57 75.696, 56.751 75, 55.032 75 C 53.901 75, 52.451 76.169, 51.624 77.749 L 50.184 80.497 48.931 77.749 C 47.600 74.826, 44.313 74.022, 43.402 76.395 M 59.424 76.337 C 58.264 79.360, 59.441 85.472, 61.250 85.815 C 62.218 85.999, 63 85.542, 63 84.793 C 63 84.048, 64.382 82.917, 66.072 82.279 C 68.640 81.310, 69.091 80.658, 68.822 78.310 C 68.532 75.779, 68.078 75.469, 64.241 75.192 C 61.224 74.974, 59.819 75.308, 59.424 76.337 M 71.198 80.241 C 71.431 84.291, 71.897 85.557, 73.250 85.814 C 74.747 86.099, 75 85.341, 75 80.573 C 75 75.619, 74.772 75, 72.948 75 C 71.101 75, 70.926 75.524, 71.198 80.241 M 77 80.500 C 77 84.603, 77.363 86, 78.430 86 C 79.217 86, 80.005 85.055, 80.180 83.900 L 80.500 81.800 83.240 83.965 C 86.877 86.838, 88 85.889, 88 79.941 C 88 76.216, 87.631 75, 86.500 75 C 85.627 75, 85 75.908, 85 77.174 L 85 79.349 82.686 77.174 C 78.582 73.319, 77 74.244, 77 80.500 M 236 77.500 C 236 79.482, 236.439 80.062, 237.750 79.810 C 238.713 79.624, 239.500 78.585, 239.500 77.500 C 239.500 76.415, 238.713 75.376, 237.750 75.190 C 236.439 74.938, 236 75.518, 236 77.500 M 35.639 77.694 C 34.444 78.889, 34.994 81, 36.500 81 C 37.325 81, 38 80.352, 38 79.559 C 38 77.888, 36.573 76.761, 35.639 77.694 M 63 78.500 C 63 79.325, 63.450 80, 64 80 C 64.550 80, 65 79.325, 65 78.500 C 65 77.675, 64.550 77, 64 77 C 63.450 77, 63 77.675, 63 78.500 M 172.707 79.011 C 172.370 80.300, 172.682 81, 173.594 81 C 175.139 81, 175.526 78.443, 174.114 77.570 C 173.626 77.269, 172.993 77.917, 172.707 79.011 M 195.145 77.785 C 193.401 78.366, 193.670 86, 195.434 86 C 196.242 86, 197.005 84.834, 197.184 83.327 C 197.644 79.434, 200 79.091, 200 82.917 C 200 84.991, 200.491 86, 201.500 86 C 202.509 86, 203 84.991, 203 82.917 C 203 79.091, 205.356 79.434, 205.816 83.327 C 206.344 87.780, 209 86.647, 209 81.969 C 209 77.623, 207.072 75.866, 204.576 77.937 C 203.608 78.740, 202.977 78.771, 202.523 78.038 C 201.914 77.052, 197.770 76.910, 195.145 77.785 M 211 81.500 C 211 84.833, 211.389 86, 212.500 86 C 213.611 86, 214 84.833, 214 81.500 C 214 78.167, 213.611 77, 212.500 77 C 211.389 77, 211 78.167, 211 81.500 M 217.250 77.741 C 215.425 78.362, 215.595 86, 217.434 86 C 218.242 86, 219.005 84.834, 219.184 83.327 C 219.644 79.434, 222 79.091, 222 82.917 C 222 85.041, 222.484 86, 223.557 86 C 224.771 86, 225.047 85.062, 224.807 81.750 C 224.521 77.787, 224.297 77.494, 221.500 77.408 C 219.850 77.357, 217.938 77.507, 217.250 77.741 M 246.202 78.198 C 244.634 79.766, 244.661 83.477, 246.250 84.783 C 246.938 85.349, 249.211 85.809, 251.303 85.806 L 255.105 85.800 254.803 81.666 C 254.513 77.712, 254.345 77.520, 250.952 77.264 C 249 77.117, 246.863 77.537, 246.202 78.198 M 258.250 77.741 C 256.425 78.362, 256.595 86, 258.434 86 C 259.242 86, 260.005 84.834, 260.184 83.327 C 260.644 79.434, 263 79.091, 263 82.917 C 263 85.041, 263.484 86, 264.557 86 C 265.771 86, 266.047 85.062, 265.807 81.750 C 265.521 77.787, 265.297 77.494, 262.500 77.408 C 260.850 77.357, 258.938 77.507, 258.250 77.741 M 269.200 78.200 C 267.363 80.037, 267.772 83.808, 269.934 84.965 C 272.403 86.286, 277 86.309, 277 85 C 277 84.450, 275.902 84, 274.559 84 C 273.216 84, 271.840 83.550, 271.500 83 C 271.139 82.417, 272.156 82, 273.941 82 C 275.784 82, 277 81.483, 277 80.700 C 277 78.753, 274.869 77, 272.500 77 C 271.345 77, 269.860 77.540, 269.200 78.200 M 185 81.500 C 185 82.530, 185.655 83.020, 186.750 82.810 C 188.858 82.404, 188.725 80.629, 186.553 80.177 C 185.647 79.988, 185 80.539, 185 81.500 M 248 81.500 C 248 82.530, 248.655 83.020, 249.750 82.810 C 251.858 82.404, 251.725 80.629, 249.553 80.177 C 248.647 79.988, 248 80.539, 248 81.500" stroke="none" fill="#b81b4b" fill-rule="evenodd"/><path d="M 136.020 38.752 C 131.661 40.942, 128 46.304, 128 50.500 C 128 60.538, 141.668 66.579, 149.179 59.859 L 151.500 57.783 148.785 59.391 C 145.036 61.613, 139.453 61.453, 137.056 59.056 C 134.732 56.732, 133.522 51.138, 134.397 46.763 C 135.828 39.609, 142.862 36.744, 148.365 41.073 C 150.862 43.037, 151 43.048, 151 41.280 C 151 39.914, 149.793 39.092, 146.486 38.207 C 140.652 36.647, 140.157 36.673, 136.020 38.752 M 226.750 38.031 C 228.893 38.893, 229 39.460, 229 50 C 229 60.540, 228.893 61.107, 226.750 61.969 C 225.199 62.592, 227.996 62.893, 235.750 62.937 L 247 63 247 60.477 C 247 58.037, 246.920 58.006, 244.576 59.542 C 243.122 60.495, 240.622 61.004, 238.326 60.815 C 234.522 60.502, 234.498 60.473, 234.195 55.750 C 233.934 51.681, 234.156 51, 235.745 51 C 236.765 51, 238.140 51.540, 238.800 52.200 C 239.733 53.133, 240 52.644, 240 50 C 240 47.356, 239.733 46.867, 238.800 47.800 C 238.140 48.460, 236.790 49, 235.800 49 C 234.307 49, 234 48.148, 234 44 L 234 39 238 39 C 240.667 39, 242.667 39.667, 244 41 L 246 43 246 40 L 246 37 235.250 37.063 C 227.795 37.107, 225.190 37.404, 226.750 38.031 M 290.750 37.662 C 291.651 38.026, 292 41.469, 292 50 C 292 58.531, 291.651 61.974, 290.750 62.338 C 290.063 62.615, 291.750 62.842, 294.500 62.842 C 297.250 62.842, 298.938 62.615, 298.250 62.338 C 297.344 61.972, 297 58.414, 297 49.417 L 297 37 293.250 37.079 C 291.188 37.122, 290.063 37.385, 290.750 37.662 M 162.250 45.689 C 163.690 46.066, 164 47.297, 164 52.639 C 164 61.769, 166.596 65.602, 170 61.500 C 170.860 60.464, 170.898 60, 170.122 60 C 169.408 60, 169 57.649, 169 53.535 C 169 46.551, 167.764 44.868, 162.816 45.116 C 161.121 45.201, 160.970 45.355, 162.250 45.689 M 174.800 46.200 C 175.491 46.891, 176 50.200, 176 54 C 176 57.800, 175.491 61.109, 174.800 61.800 C 173.867 62.733, 174.578 63, 178 63 C 181.422 63, 182.133 62.733, 181.200 61.800 C 180.540 61.140, 180 58.270, 180 55.422 C 180 49.960, 181.698 47.286, 184.487 48.357 C 186.446 49.108, 186.680 61.559, 184.750 62.338 C 184.063 62.615, 185.750 62.871, 188.500 62.906 C 191.492 62.944, 192.977 62.638, 192.198 62.144 C 191.294 61.570, 190.989 59.360, 191.198 54.909 C 191.474 49.061, 191.704 48.471, 193.832 48.170 C 196.122 47.845, 196.158 47.974, 195.832 55.422 L 195.500 63.005 199.500 62.923 C 201.700 62.879, 202.938 62.615, 202.250 62.338 C 201.421 62.003, 201 59.529, 201 54.988 C 201 45.596, 198.092 42.676, 192.914 46.868 C 190.652 48.700, 190.575 48.696, 188.921 46.654 C 187.371 44.739, 187.004 44.687, 184.367 46.004 C 182.790 46.791, 181.162 47.600, 180.750 47.801 C 180.338 48.002, 180 47.454, 180 46.583 C 180 45.469, 179.053 45, 176.800 45 C 174.311 45, 173.867 45.267, 174.800 46.200 M 205.800 46.200 C 206.582 46.982, 207 51.089, 207 58 C 207 64.911, 206.582 69.018, 205.800 69.800 C 204.867 70.733, 205.687 71, 209.491 71 C 213.629 71, 214.125 70.807, 212.711 69.750 C 210.243 67.904, 210.675 49.235, 213.222 47.630 C 215.981 45.892, 217.500 48.378, 217.500 54.631 C 217.500 58.951, 217.075 60.472, 215.559 61.581 C 213.645 62.980, 213.646 63, 215.620 63 C 219.436 63, 222 59.384, 222 54 C 222 50.224, 221.490 48.603, 219.811 47.039 C 217.313 44.711, 214.994 44.440, 213.075 46.250 C 212.015 47.250, 211.658 47.250, 211.292 46.250 C 211.040 45.563, 209.431 45, 207.717 45 C 205.293 45, 204.867 45.267, 205.800 46.200 M 252.438 47.527 C 256.149 51.532, 257.528 55.638, 255.872 57.751 C 254.641 59.320, 254.673 59.365, 256.180 58.185 C 257.621 57.058, 258.028 57.184, 259.034 59.063 C 259.962 60.797, 259.924 61.433, 258.853 62.112 C 257.989 62.659, 259.209 62.975, 262.228 62.985 L 266.956 63 263.978 58.304 C 260.723 53.171, 260.345 51.135, 262.250 48.998 C 263.321 47.798, 263.238 47.796, 261.674 48.984 C 260.112 50.171, 259.716 50.164, 258.934 48.936 C 258.432 48.146, 258.227 46.938, 258.479 46.250 C 258.802 45.369, 257.631 45, 254.516 45 L 250.095 45 252.438 47.527 M 261.767 46.167 C 262.631 47.031, 263.530 47.048, 265.217 46.235 C 267.361 45.202, 267.290 45.131, 264.050 45.068 C 261.420 45.016, 260.878 45.278, 261.767 46.167 M 269.750 45.662 C 270.651 46.026, 271 49.469, 271 58 C 271 66.531, 270.651 69.974, 269.750 70.338 C 269.063 70.615, 270.975 70.825, 274 70.805 C 277.025 70.785, 278.736 70.567, 277.802 70.321 C 276.346 69.937, 276.102 68.406, 276.083 59.534 C 276.061 48.791, 277.056 46.040, 280.487 47.357 C 282.825 48.254, 282.625 60.536, 280.250 61.920 C 278.595 62.884, 278.598 62.941, 280.295 62.970 C 281.283 62.986, 283.195 61.895, 284.545 60.545 C 287.900 57.191, 287.918 51.178, 284.586 47.306 C 282.369 44.730, 281.918 44.595, 279.086 45.663 C 277.389 46.303, 276 46.415, 276 45.913 C 276 45.411, 274.313 45.036, 272.250 45.079 C 270.188 45.122, 269.063 45.385, 269.750 45.662 M 305.364 46.170 C 299.035 49.234, 300.159 60.998, 306.924 62.483 C 312.390 63.684, 316.273 60.077, 316.273 53.799 C 316.273 50.514, 315.702 49.141, 313.581 47.316 C 310.679 44.820, 308.717 44.546, 305.364 46.170 M 320.800 46.200 C 322.381 47.781, 322.381 60.219, 320.800 61.800 C 319.867 62.733, 320.660 63, 324.371 63 C 328.849 63, 329.039 62.896, 327.454 61.312 C 326.172 60.029, 325.894 58.526, 326.299 55.062 C 326.593 52.553, 326.593 49.263, 326.300 47.750 C 325.856 45.460, 325.251 45, 322.683 45 C 320.285 45, 319.867 45.267, 320.800 46.200 M 329.696 46.250 C 328.162 47.388, 328.234 47.604, 330.505 48.656 C 333.195 49.902, 334.570 48.929, 333.620 46.452 C 332.937 44.672, 331.897 44.618, 329.696 46.250 M 340.364 46.170 C 335.617 48.468, 334.533 56.624, 338.455 60.545 C 341.254 63.345, 343.758 63.650, 346.559 61.532 C 348.425 60.120, 348.399 60.062, 345.872 60.032 C 343.019 59.997, 341.626 58.745, 340.555 55.250 C 339.902 53.119, 340.137 53, 345 53 C 349.852 53, 350.099 52.876, 349.480 50.750 C 348.749 48.235, 345.386 44.964, 343.639 45.068 C 343.013 45.105, 341.539 45.601, 340.364 46.170 M 157.011 47.487 C 155.552 49.245, 156.454 52.348, 158.251 51.751 C 159.563 51.314, 160.231 46, 158.973 46 C 158.573 46, 157.689 46.669, 157.011 47.487 M 306.417 47.355 C 306.131 48.101, 306.033 51.584, 306.199 55.095 C 306.450 60.415, 306.814 61.540, 308.380 61.838 C 309.414 62.035, 310.645 61.590, 311.115 60.848 C 312.099 59.296, 312.295 49.932, 311.393 47.582 C 310.651 45.648, 307.134 45.488, 306.417 47.355 M 341.035 47.934 C 339.361 51.062, 339.815 52, 343 52 C 346.033 52, 346.651 50.860, 345.393 47.582 C 344.560 45.411, 342.287 45.595, 341.035 47.934 M 159.295 54.086 C 155.372 56.599, 154.213 59.642, 156.360 61.789 C 157.711 63.139, 158.309 63.170, 160.713 62.007 C 162.942 60.930, 163.149 60.579, 161.750 60.257 C 159.533 59.746, 159.481 56.231, 161.655 53.829 C 163.774 51.488, 163.266 51.543, 159.295 54.086 M 252 61.653 C 249.558 62.940, 249.592 62.971, 253.500 62.970 C 255.700 62.970, 257.050 62.634, 256.500 62.223 C 255.950 61.813, 255.275 61.220, 255 60.906 C 254.725 60.592, 253.375 60.928, 252 61.653" stroke="none" fill="#171717" fill-rule="evenodd"/><path d="M 150.902 37.750 C 150.560 40.380, 150.843 45.176, 151.371 45.704 C 151.717 46.050, 152 44.233, 152 41.667 C 152 39.100, 151.775 37, 151.500 37 C 151.225 37, 150.956 37.337, 150.902 37.750 M 239.914 44.750 C 239.651 50.096, 239.908 56.242, 240.416 56.750 C 240.737 57.071, 241 54.108, 241 50.167 C 241 46.225, 240.775 43, 240.500 43 C 240.225 43, 239.961 43.788, 239.914 44.750 M 326.070 46.691 C 326.032 47.896, 326.450 49.160, 327 49.500 C 328.183 50.231, 328.183 49.252, 327 46.500 C 326.171 44.572, 326.138 44.579, 326.070 46.691 M 175.336 54 C 175.336 58.125, 175.513 59.813, 175.728 57.750 C 175.944 55.688, 175.944 52.313, 175.728 50.250 C 175.513 48.188, 175.336 49.875, 175.336 54 M 206.378 58 C 206.378 64.325, 206.541 66.912, 206.739 63.750 C 206.937 60.587, 206.937 55.412, 206.739 52.250 C 206.541 49.087, 206.378 51.675, 206.378 58 M 321.336 54 C 321.336 58.125, 321.513 59.813, 321.728 57.750 C 321.944 55.688, 321.944 52.313, 321.728 50.250 C 321.513 48.188, 321.336 49.875, 321.336 54 M 311.320 54 C 311.320 57.575, 311.502 59.038, 311.723 57.250 C 311.945 55.462, 311.945 52.538, 311.723 50.750 C 311.502 48.962, 311.320 50.425, 311.320 54 M 180.310 55.500 C 180.315 58.800, 180.502 60.029, 180.725 58.232 C 180.947 56.435, 180.943 53.735, 180.715 52.232 C 180.486 50.729, 180.304 52.200, 180.310 55.500 M 217.252 54.500 C 217.263 56.700, 217.468 57.482, 217.707 56.238 C 217.946 54.994, 217.937 53.194, 217.687 52.238 C 217.437 51.282, 217.241 52.300, 217.252 54.500 M 326.252 56.500 C 326.263 58.700, 326.468 59.482, 326.707 58.238 C 326.946 56.994, 326.937 55.194, 326.687 54.238 C 326.437 53.282, 326.241 54.300, 326.252 56.500" stroke="none" fill="#74212d" fill-rule="evenodd"/><path d="M 32.768 14 C 31.890 15.406, 30.436 16, 27.870 16 C 25.598 16, 23.331 16.785, 21.861 18.080 L 19.500 20.160 21.973 18.580 C 23.332 17.711, 26.317 17, 28.606 17 C 31.926 17, 32.872 16.596, 33.290 15 C 33.790 13.089, 34.654 13, 52.751 13 C 70.420 13, 71.811 13.134, 73.500 15 C 74.720 16.348, 76.580 17, 79.205 17 C 85.224 17, 88.473 19.306, 92.937 26.746 C 95.165 30.461, 96.992 33.109, 96.995 32.631 C 96.998 32.153, 95.367 29.073, 93.371 25.788 C 89.142 18.825, 85.121 16.009, 79.405 16.004 C 76.583 16.001, 74.747 15.378, 73.500 14 C 71.812 12.135, 70.420 12, 52.853 12 C 35.100 12, 33.945 12.115, 32.768 14 M 23.042 19.958 C 21.919 21.081, 21.036 22.788, 21.079 23.750 C 21.129 24.852, 21.530 24.481, 22.163 22.748 C 22.716 21.234, 24.143 19.751, 25.335 19.452 C 26.526 19.153, 40.265 19.042, 55.866 19.204 L 84.231 19.500 87.744 23.500 C 89.675 25.700, 90.790 26.600, 90.220 25.500 C 89.650 24.400, 87.982 22.375, 86.513 21 L 83.842 18.500 54.463 18.208 C 26.012 17.924, 25.020 17.980, 23.042 19.958 M 67.218 24.062 C 68.163 24.613, 69.387 25.837, 69.938 26.782 C 70.489 27.727, 70.953 27.970, 70.970 27.321 C 71.009 25.798, 68.202 22.991, 66.679 23.030 C 66.030 23.047, 66.273 23.511, 67.218 24.062 M 52.200 25.200 C 51.540 25.860, 50.971 27.547, 50.937 28.950 C 50.874 31.470, 50.863 31.473, 49.969 29.250 C 49.471 28.012, 48.487 27.007, 47.782 27.015 C 46.773 27.027, 46.782 27.209, 47.826 27.871 C 49.653 29.030, 50.475 36.244, 49.077 38.856 C 48.002 40.864, 47.173 41, 36.015 41 C 25.722 41, 23.961 40.762, 23.080 39.250 C 22.519 38.288, 22.047 37.973, 22.030 38.550 C 21.950 41.326, 24.706 42, 36.143 42 C 47.145 42, 47.985 41.860, 49.443 39.777 C 50.900 37.697, 51 38.149, 51 46.813 C 51 55.656, 50.913 56.024, 49.066 55.035 C 45.840 53.309, 43.238 53.852, 39.653 57 C 36.548 59.726, 35.593 60, 29.189 60 C 19.428 60, 18.914 59.351, 19.460 47.693 L 19.891 38.500 18.863 47.974 C 17.869 57.137, 17.907 57.506, 20.028 59.224 C 21.682 60.563, 24.019 61, 29.534 61 C 36.382 61, 37.043 60.803, 39.955 57.891 C 43.083 54.763, 45.489 54.430, 50.250 56.466 C 51.873 57.160, 52 56.099, 52 41.807 C 52 31.157, 52.371 26.029, 53.200 25.200 C 53.860 24.540, 54.175 24, 53.900 24 C 53.625 24, 52.860 24.540, 52.200 25.200 M 18.232 28 C 18.232 29.925, 18.438 30.712, 18.689 29.750 C 18.941 28.788, 18.941 27.212, 18.689 26.250 C 18.438 25.288, 18.232 26.075, 18.232 28 M 55 26 C 53.860 26.737, 54.269 26.973, 56.708 26.985 L 59.916 27 60.286 34.250 L 60.657 41.500 60.578 33.702 L 60.500 25.904 64 26.202 L 67.500 26.500 67.774 43.250 L 68.048 60 61.024 60 L 54 60 54 54.582 C 54 51.602, 54.273 48.452, 54.607 47.582 C 55.280 45.828, 59.543 45.414, 60.342 47.025 C 60.621 47.589, 60.728 47.476, 60.580 46.775 C 60.431 46.074, 58.926 45.502, 57.236 45.505 L 54.162 45.510 54.729 36.755 C 55.140 30.403, 54.974 28, 54.123 28 C 53.263 28, 53.024 32.331, 53.225 44.250 L 53.500 60.500 61.250 60.792 L 69 61.084 69 44.242 C 69 32.476, 68.638 27.038, 67.800 26.200 C 66.368 24.768, 57.130 24.623, 55 26 M 22.345 28.543 C 21.445 30.889, 22.417 31.164, 23.796 28.955 C 24.569 27.717, 24.635 27, 23.977 27 C 23.405 27, 22.671 27.694, 22.345 28.543 M 83.761 28.545 C 84.974 29.394, 86.383 31.532, 86.893 33.295 C 87.550 35.567, 87.846 35.884, 87.910 34.385 C 88.011 32.015, 84.476 27, 82.705 27 C 82.072 27, 82.547 27.695, 83.761 28.545 M 93.202 32.478 C 94.398 34.941, 95.549 36.785, 95.758 36.575 C 96.211 36.123, 92.170 28, 91.493 28 C 91.236 28, 92.005 30.015, 93.202 32.478 M 20.195 31.500 C 20.215 33.150, 20.439 33.704, 20.693 32.731 C 20.947 31.758, 20.930 30.408, 20.656 29.731 C 20.382 29.054, 20.175 29.850, 20.195 31.500 M 26.687 31.805 C 23.710 34.912, 22.796 38.245, 25.547 35.961 C 27.854 34.046, 31.267 29, 30.255 29 C 29.771 29, 28.165 30.262, 26.687 31.805 M 35.084 33.750 C 31.098 38.401, 30.245 40, 31.750 40 C 32.430 40, 36.480 35.374, 39.807 30.798 C 42.591 26.967, 38.944 29.247, 35.084 33.750 M 78.629 33.548 C 77.050 36.047, 76.038 38.371, 76.379 38.713 C 76.721 39.054, 77 38.808, 77 38.167 C 77 37.525, 77.419 37.113, 77.931 37.250 C 79.166 37.582, 84.082 30.941, 83.408 29.851 C 82.433 28.273, 81.511 28.986, 78.629 33.548 M 72.390 31.427 C 72.088 32.212, 72.009 33.900, 72.214 35.177 C 72.488 36.886, 72.721 36.509, 73.093 33.750 C 73.616 29.868, 73.339 28.952, 72.390 31.427 M 44.226 34.869 C 40.847 39.073, 40.423 40, 41.881 40 C 43.178 40, 48.206 33.117, 47.799 31.898 C 47.608 31.324, 46 32.661, 44.226 34.869 M 79.635 33.434 C 77.298 37.001, 77.614 37.760, 80.114 34.582 C 81.277 33.104, 82.013 31.679, 81.749 31.416 C 81.486 31.153, 80.535 32.061, 79.635 33.434 M 16.647 41.651 C 14.959 61.614, 15.736 63, 28.615 63 C 35.598 63, 36.932 63.267, 37.369 64.750 C 37.771 66.112, 37.840 66.057, 37.682 64.500 C 37.498 62.700, 36.632 62.471, 29.019 62.206 C 16.705 61.778, 16.582 61.609, 17.425 46.250 C 18.169 32.686, 17.659 29.673, 16.647 41.651 M 246.272 41 C 246.272 43.475, 246.467 44.487, 246.706 43.250 C 246.944 42.013, 246.944 39.987, 246.706 38.750 C 246.467 37.513, 246.272 38.525, 246.272 41 M 289.750 37.998 C 290.583 38.933, 291 42.934, 291 50 C 291 57.066, 290.583 61.067, 289.750 62.002 C 288.687 63.194, 288.761 63.206, 290.250 62.079 C 291.726 60.962, 292 59.072, 292 50 C 292 40.928, 291.726 39.038, 290.250 37.921 C 288.761 36.794, 288.687 36.806, 289.750 37.998 M 297.389 49.500 C 297.390 56.650, 297.550 59.444, 297.742 55.708 C 297.935 51.973, 297.934 46.123, 297.739 42.708 C 297.545 39.294, 297.387 42.350, 297.389 49.500 M 74.405 39.750 C 76.402 42.109, 81.236 42.769, 83.948 41.053 C 84.889 40.458, 83.919 40.335, 81.176 40.703 C 77.920 41.140, 76.446 40.839, 74.728 39.385 L 72.500 37.500 74.405 39.750 M 99.656 42.500 C 99.991 44.700, 100.431 46.688, 100.633 46.917 C 101.390 47.776, 100.823 42.420, 99.953 40.500 C 99.322 39.106, 99.232 39.712, 99.656 42.500 M 234.300 44 C 234.300 47.025, 234.487 48.263, 234.716 46.750 C 234.945 45.237, 234.945 42.763, 234.716 41.250 C 234.487 39.737, 234.300 40.975, 234.300 44 M 130.278 41.250 C 128.779 43.188, 127.836 45, 128.326 45 C 128.570 45, 129.507 43.875, 130.408 42.500 C 132.094 39.927, 132 39.024, 130.278 41.250 M 97.199 42.500 C 97.199 43.600, 97.560 45.625, 98 47 C 98.634 48.980, 98.801 49.084, 98.801 47.500 C 98.801 46.400, 98.440 44.375, 98 43 C 97.366 41.020, 97.199 40.916, 97.199 42.500 M 158.616 45.674 C 159.230 46.128, 159.680 48.145, 159.616 50.155 C 159.552 52.166, 159.864 53.586, 160.308 53.310 C 161.670 52.467, 160.533 45.670, 158.959 45.243 C 157.999 44.983, 157.881 45.130, 158.616 45.674 M 189.250 46.519 C 190.972 48.398, 191.028 48.398, 192.750 46.519 C 194.417 44.700, 194.417 44.672, 192.750 45.927 C 191.302 47.017, 190.698 47.017, 189.250 45.927 C 187.583 44.672, 187.583 44.700, 189.250 46.519 M 258.556 45.910 C 257.833 47.079, 258.941 50, 260.107 50 C 260.598 50, 261.036 50.788, 261.079 51.750 C 261.141 53.134, 261.273 53.186, 261.706 52 C 262.008 51.175, 263.210 49.375, 264.377 48 L 266.500 45.500 263.900 47.783 C 261.632 49.775, 261.142 49.876, 260.064 48.577 C 259.384 47.758, 259.118 46.618, 259.473 46.044 C 259.828 45.470, 259.893 45, 259.618 45 C 259.343 45, 258.865 45.409, 258.556 45.910 M 268.750 45.998 C 269.583 46.933, 270 50.934, 270 58 C 270 65.066, 269.583 69.067, 268.750 70.002 C 267.687 71.194, 267.761 71.206, 269.250 70.079 C 270.726 68.962, 271 67.072, 271 58 C 271 48.928, 270.726 47.038, 269.250 45.921 C 267.761 44.794, 267.687 44.806, 268.750 45.998 M 302.405 47.250 L 300.500 49.500 303 47.511 C 304.375 46.417, 305.688 45.404, 305.917 45.261 C 306.146 45.117, 305.878 45, 305.322 45 C 304.765 45, 303.453 46.013, 302.405 47.250 M 311.083 45.261 C 311.313 45.404, 312.625 46.417, 314 47.511 L 316.500 49.500 314.595 47.250 C 313.547 46.013, 312.235 45, 311.678 45 C 311.122 45, 310.854 45.117, 311.083 45.261 M 328.058 46.430 C 327.103 47.581, 327.323 48.080, 329.185 48.985 C 331.236 49.982, 331.304 49.952, 329.785 48.720 C 328.479 47.662, 328.348 47.052, 329.235 46.165 C 329.876 45.524, 330.140 45, 329.822 45 C 329.505 45, 328.711 45.644, 328.058 46.430 M 333.500 47.500 C 333.500 48.770, 333.837 49.600, 334.250 49.345 C 334.663 49.091, 335 48.260, 335 47.500 C 335 46.740, 334.663 45.909, 334.250 45.655 C 333.837 45.400, 333.500 46.230, 333.500 47.500 M 337.405 47.250 L 335.500 49.500 338 47.511 C 339.375 46.417, 340.688 45.404, 340.917 45.261 C 341.146 45.117, 340.878 45, 340.322 45 C 339.765 45, 338.453 46.013, 337.405 47.250 M 347.606 47.152 C 348.648 48.611, 349.700 49.611, 349.944 49.374 C 350.189 49.138, 349.337 47.944, 348.050 46.722 L 345.712 44.500 347.606 47.152 M 127.141 50.059 C 127.053 52.901, 127.593 55.349, 128.574 56.559 C 129.440 57.626, 129.785 57.825, 129.342 57 C 128.898 56.175, 128.253 53.250, 127.909 50.500 L 127.282 45.500 127.141 50.059 M 162.625 49.345 C 162.694 51.080, 162.092 53.254, 161.288 54.176 C 160.483 55.097, 160.037 56.672, 160.296 57.676 C 160.684 59.176, 160.789 59.111, 160.884 57.309 C 160.948 56.104, 161.467 54.830, 162.037 54.477 C 162.695 54.070, 162.984 55.169, 162.828 57.485 C 162.692 59.496, 161.890 61.540, 161.041 62.037 C 160.193 62.533, 160.007 62.953, 160.628 62.970 C 161.248 62.986, 162.195 62.438, 162.734 61.750 C 163.863 60.308, 164.273 47.287, 163.210 46.629 C 162.819 46.388, 162.556 47.610, 162.625 49.345 M 174.349 54 C 174.349 58.675, 174.522 60.587, 174.732 58.250 C 174.943 55.912, 174.943 52.087, 174.732 49.750 C 174.522 47.412, 174.349 49.325, 174.349 54 M 205.385 58 C 205.385 64.875, 205.545 67.688, 205.740 64.250 C 205.936 60.813, 205.936 55.188, 205.740 51.750 C 205.545 48.313, 205.385 51.125, 205.385 58 M 306.667 46.667 C 305.747 47.586, 305.822 60.772, 306.750 61.345 C 307.163 61.600, 307.500 58.252, 307.500 53.905 C 307.500 49.557, 307.462 46, 307.417 46 C 307.371 46, 307.033 46.300, 306.667 46.667 M 309.500 54 C 309.500 58.295, 309.837 61.600, 310.250 61.345 C 310.663 61.091, 311 57.785, 311 54 C 311 50.215, 310.663 46.909, 310.250 46.655 C 309.837 46.400, 309.500 49.705, 309.500 54 M 320.349 54 C 320.349 58.675, 320.522 60.587, 320.732 58.250 C 320.943 55.912, 320.943 52.087, 320.732 49.750 C 320.522 47.412, 320.349 49.325, 320.349 54 M 341.540 46.936 C 341.161 47.548, 341.499 47.746, 342.361 47.415 C 343.196 47.094, 344.034 47.537, 344.311 48.446 C 344.719 49.785, 344.773 49.770, 344.648 48.352 C 344.473 46.362, 342.461 45.445, 341.540 46.936 M 134.232 50 C 134.232 51.925, 134.438 52.712, 134.689 51.750 C 134.941 50.788, 134.941 49.212, 134.689 48.250 C 134.438 47.288, 134.232 48.075, 134.232 50 M 277.154 48.314 C 275.942 49.774, 275.669 68.677, 276.849 69.407 C 277.252 69.656, 277.408 68.369, 277.195 66.548 C 276.983 64.727, 277.324 62.918, 277.953 62.529 C 278.790 62.012, 278.801 61.465, 277.993 60.492 C 277.386 59.761, 277.027 56.763, 277.195 53.831 C 277.444 49.485, 277.821 48.525, 279.239 48.637 C 280.196 48.712, 280.732 48.375, 280.430 47.887 C 279.652 46.628, 278.421 46.788, 277.154 48.314 M 169.320 54 C 169.320 57.575, 169.502 59.038, 169.723 57.250 C 169.945 55.462, 169.945 52.538, 169.723 50.750 C 169.502 48.962, 169.320 50.425, 169.320 54 M 193.975 48.658 C 195.434 49.382, 195.250 60.320, 193.750 62.002 C 192.682 63.199, 192.762 63.205, 194.294 62.043 C 195.736 60.949, 196.030 59.507, 195.794 54.671 C 195.604 50.792, 195.048 48.568, 194.225 48.404 C 193.524 48.264, 193.411 48.379, 193.975 48.658 M 201.193 54.128 C 201.039 59.405, 201.357 61.035, 202.750 62.128 C 204.284 63.331, 204.352 63.310, 203.303 61.962 C 202.645 61.116, 201.944 57.516, 201.746 53.962 L 201.385 47.500 201.193 54.128 M 216.310 54.500 C 216.315 57.800, 216.502 59.029, 216.725 57.232 C 216.947 55.435, 216.943 52.735, 216.715 51.232 C 216.486 49.729, 216.304 51.200, 216.310 54.500 M 101.404 53 C 101.539 56.498, 106.062 57.085, 107.500 53.791 C 108.287 51.988, 109.299 51.500, 112.251 51.500 C 114.314 51.500, 116.001 51.163, 116.001 50.750 C 116 50.337, 114.458 50, 112.573 50 C 110.108 50, 108.593 50.702, 107.179 52.500 C 104.735 55.607, 102.265 55.720, 101.720 52.750 C 101.361 50.792, 101.320 50.825, 101.404 53 M 191.320 56 C 191.320 59.575, 191.502 61.038, 191.723 59.250 C 191.945 57.462, 191.945 54.538, 191.723 52.750 C 191.502 50.962, 191.320 52.425, 191.320 56 M 211.254 59.227 C 211.179 64.577, 211.428 69.146, 211.808 69.382 C 212.189 69.617, 212.363 67.715, 212.196 65.155 C 211.970 61.704, 212.160 60.888, 212.930 62 C 213.502 62.825, 213.976 63.027, 213.985 62.450 C 213.993 61.872, 213.577 60.972, 213.060 60.450 C 212.543 59.927, 211.956 57.250, 211.756 54.500 C 211.556 51.750, 211.330 53.877, 211.254 59.227 M 254.434 52.873 C 255.252 54.453, 255.601 56.101, 255.210 56.534 C 254.820 56.966, 255.061 56.998, 255.746 56.604 C 256.721 56.043, 256.661 55.245, 255.471 52.943 C 254.634 51.324, 253.724 50, 253.449 50 C 253.174 50, 253.617 51.293, 254.434 52.873 M 281.286 54.500 C 281.294 57.250, 281.488 58.256, 281.718 56.736 C 281.947 55.216, 281.941 52.966, 281.704 51.736 C 281.467 50.506, 281.279 51.750, 281.286 54.500 M 287.272 54 C 287.272 56.475, 287.467 57.487, 287.706 56.250 C 287.944 55.013, 287.944 52.987, 287.706 51.750 C 287.467 50.513, 287.272 51.525, 287.272 54 M 185.286 55.500 C 185.294 58.250, 185.488 59.256, 185.718 57.736 C 185.947 56.216, 185.941 53.966, 185.704 52.736 C 185.467 51.506, 185.279 52.750, 185.286 55.500 M 234.272 55 C 234.272 57.475, 234.467 58.487, 234.706 57.250 C 234.944 56.013, 234.944 53.987, 234.706 52.750 C 234.467 51.513, 234.272 52.525, 234.272 55 M 99 54.345 C 99 58.970, 96.449 59.909, 82.957 60.251 L 70.500 60.568 83.250 60.784 C 94.831 60.980, 96.183 60.817, 98 59 C 99.746 57.254, 100.872 52, 99.500 52 C 99.225 52, 99 53.055, 99 54.345 M 110.500 52.765 C 109.270 53.669, 108.721 56.012, 109.750 55.968 C 111.166 55.908, 113.969 53.302, 113.318 52.651 C 112.485 51.818, 111.749 51.848, 110.500 52.765 M 155.567 55.926 C 154.609 56.985, 154.037 58.672, 154.296 59.676 C 154.733 61.363, 154.777 61.356, 154.884 59.579 C 154.948 58.522, 155.745 56.835, 156.655 55.829 C 157.565 54.823, 158.085 54, 157.810 54 C 157.535 54, 156.526 54.867, 155.567 55.926 M 113.500 56 C 111.592 56.820, 111.603 56.863, 113.750 56.930 C 114.987 56.968, 116 56.550, 116 56 C 116 55.450, 115.888 55.032, 115.750 55.070 C 115.612 55.109, 114.600 55.527, 113.500 56 M 148.405 58.250 L 146.500 60.500 148.750 58.595 C 151.420 56.334, 151.732 57.473, 149.250 60.421 C 147.502 62.498, 147.502 62.498, 149.750 60.595 C 151.969 58.716, 152.800 56, 151.155 56 C 150.690 56, 149.453 57.013, 148.405 58.250 M 335.079 57.059 C 335.036 57.916, 335.700 59.491, 336.555 60.559 C 338.085 62.469, 338.096 62.468, 337.190 60.500 C 336.684 59.400, 336.020 57.825, 335.714 57 C 335.234 55.704, 335.147 55.712, 335.079 57.059 M 247.195 59.500 C 247.215 61.150, 247.439 61.704, 247.693 60.731 C 247.947 59.758, 247.930 58.408, 247.656 57.731 C 247.382 57.054, 247.175 57.850, 247.195 59.500 M 302.722 61.050 C 303.944 62.337, 305.138 63.189, 305.374 62.944 C 305.611 62.700, 304.611 61.648, 303.152 60.606 L 300.500 58.712 302.722 61.050 M 43.592 60.851 C 43.252 61.401, 43.855 61.589, 44.999 61.290 C 46.559 60.882, 47 61.259, 47 63 C 47 64.791, 46.575 65.122, 44.856 64.673 C 43.325 64.272, 43.020 64.420, 43.789 65.189 C 45.507 66.907, 48.182 65.298, 47.820 62.765 C 47.489 60.444, 44.640 59.155, 43.592 60.851 M 107.500 61 L 103.500 61.716 107.191 61.858 C 109.221 61.936, 111.160 61.550, 111.500 61 C 111.840 60.450, 111.979 60.064, 111.809 60.142 C 111.639 60.220, 109.700 60.606, 107.500 61 M 53.667 62.667 C 53.300 63.033, 53 64.126, 53 65.094 C 53 66.063, 51.814 67.788, 50.365 68.927 C 48.916 70.067, 48.163 71, 48.691 71 C 50.228 71, 54 66.528, 54 64.705 C 54 63.210, 56.236 63.009, 75.750 62.749 L 97.500 62.459 75.917 62.229 C 64.046 62.103, 54.033 62.300, 53.667 62.667 M 97.667 63.667 C 96.379 64.955, 97.018 68.770, 98.750 70.128 C 100.335 71.370, 100.371 71.335, 99.132 69.756 C 98.380 68.796, 97.980 66.884, 98.244 65.506 C 98.757 62.819, 98.699 62.634, 97.667 63.667 M 105.116 66.550 C 105.052 67.677, 104.552 69.142, 104.004 69.804 C 103.456 70.466, 103.724 70.384, 104.600 69.622 C 105.476 68.860, 105.976 67.396, 105.712 66.368 C 105.279 64.684, 105.221 64.702, 105.116 66.550 M 39.722 69.050 C 40.944 70.337, 42.138 71.189, 42.374 70.944 C 42.611 70.700, 41.611 69.648, 40.152 68.606 L 37.500 66.712 39.722 69.050 M 176.086 73 C 176.055 73.825, 176.467 75.175, 177 76 C 178.181 77.828, 178.181 76.249, 177 73.500 C 176.433 72.181, 176.122 72.011, 176.086 73 M 188.232 75 C 188.232 76.925, 188.438 77.713, 188.689 76.750 C 188.941 75.787, 188.941 74.213, 188.689 73.250 C 188.438 72.287, 188.232 73.075, 188.232 75 M 192.160 78.750 C 192.066 83.023, 192.411 86, 193 86 C 193.550 86, 194 84.237, 194 82.083 C 194 79.929, 194.338 77.978, 194.750 77.747 C 195.162 77.517, 194.964 77.455, 194.309 77.610 C 193.634 77.770, 192.946 76.508, 192.719 74.696 C 192.500 72.938, 192.248 74.763, 192.160 78.750 M 231.336 79 C 231.336 83.125, 231.513 84.813, 231.728 82.750 C 231.944 80.688, 231.944 77.313, 231.728 75.250 C 231.513 73.188, 231.336 74.875, 231.336 79 M 241.250 73.080 C 243.315 74.283, 243.630 79.894, 241.750 82.002 C 240.687 83.194, 240.761 83.206, 242.250 82.079 C 243.727 80.961, 244 80.989, 244 82.255 C 244 83.080, 244.787 84.351, 245.750 85.079 C 247.239 86.206, 247.313 86.194, 246.250 85.002 C 245.563 84.231, 245 82.655, 245 81.500 C 245 80.345, 245.563 78.769, 246.250 77.998 C 247.313 76.806, 247.239 76.794, 245.750 77.921 C 244.201 79.093, 244 78.967, 244 76.822 C 244 74.286, 242.339 71.979, 240.550 72.030 C 239.972 72.047, 240.287 72.519, 241.250 73.080 M 278 75.622 C 278 78.737, 277.789 79.069, 276.493 77.994 C 275.150 76.880, 275.149 77.058, 276.480 79.621 C 277.302 81.205, 277.725 83.287, 277.420 84.250 C 277.115 85.213, 277.346 86, 277.933 86 C 278.587 86, 279 83.295, 279 79 C 279 75.150, 278.775 72, 278.500 72 C 278.225 72, 278 73.630, 278 75.622 M 282.336 79 C 282.336 83.125, 282.513 84.813, 282.728 82.750 C 282.944 80.688, 282.944 77.313, 282.728 75.250 C 282.513 73.188, 282.336 74.875, 282.336 79 M 18.557 76.223 C 16.362 79.355, 16.621 82.296, 19.314 84.826 C 22.317 87.646, 26.096 87.591, 28.826 84.686 C 31.870 81.445, 31.693 79.786, 28.435 81.025 C 24.679 82.453, 24.227 82.266, 24.755 79.500 C 25.277 76.771, 23.332 75.970, 22.357 78.513 C 21.458 80.856, 23.989 83.220, 26.676 82.545 C 29.204 81.911, 29.698 82.902, 27.800 84.800 C 26.007 86.593, 21.534 86.248, 19.655 84.171 C 16.832 81.052, 18.057 76.103, 22 74.694 C 23.212 74.261, 23.175 74.143, 21.807 74.079 C 20.875 74.036, 19.413 75, 18.557 76.223 M 32.653 74.750 C 32.398 75.162, 33.822 75.500, 35.820 75.500 C 38.707 75.500, 39.695 76.012, 40.646 78 C 42.053 80.941, 41.322 86, 39.490 86 C 38.788 86, 37.955 85.325, 37.638 84.500 C 37.322 83.675, 36.603 83, 36.041 83 C 35.479 83, 35.790 83.900, 36.732 85 C 39.064 87.724, 40.855 87.511, 42.050 84.368 C 43.899 79.506, 40.635 74, 35.904 74 C 34.372 74, 32.909 74.338, 32.653 74.750 M 43 74.861 C 43 75.335, 44.037 75.525, 45.303 75.282 C 47.078 74.943, 47.903 75.491, 48.895 77.670 L 50.184 80.497 51.624 77.749 C 52.451 76.169, 53.901 75, 55.032 75 C 56.756 75, 57 75.697, 57 80.617 C 57 85.741, 56.825 86.187, 55 85.710 C 53.900 85.423, 53 85.626, 53 86.163 C 53 86.700, 54.013 86.995, 55.250 86.820 C 57.298 86.529, 57.500 85.961, 57.500 80.500 C 57.500 74.798, 57.372 74.485, 54.925 74.200 C 53.041 73.981, 52.077 74.512, 51.333 76.180 L 50.316 78.459 49.123 76.229 C 47.968 74.071, 43 72.961, 43 74.861 M 58.998 74.750 C 58.997 75.162, 61.135 75.500, 63.748 75.500 C 68.027 75.500, 68.534 75.743, 68.845 77.944 C 69.057 79.446, 68.502 80.891, 67.404 81.694 C 66.421 82.412, 66.127 83, 66.750 83 C 67.373 83, 68.236 82.438, 68.670 81.750 C 69.188 80.928, 69.638 81.528, 69.985 83.500 C 70.389 85.797, 71.097 86.556, 73.006 86.740 C 75.467 86.977, 75.470 86.967, 73.250 86.022 C 71.342 85.210, 71 84.300, 71 80.032 C 71 75.712, 71.275 75, 72.948 75 C 74.584 75, 74.954 75.839, 75.263 80.250 L 75.630 85.500 75.815 80.219 C 76.017 74.444, 74.389 72.651, 70.914 74.822 C 69.755 75.546, 68.873 75.603, 68.487 74.980 C 67.785 73.843, 59.001 73.631, 58.998 74.750 M 78.500 74.716 C 79.600 74.982, 81.625 76.167, 83 77.350 L 85.500 79.500 83.076 76.750 C 81.742 75.237, 79.717 74.052, 78.576 74.116 C 76.564 74.228, 76.562 74.247, 78.500 74.716 M 86.250 74.689 C 87.614 75.046, 88 76.219, 88 80.014 C 88 85.890, 86.867 86.830, 83.240 83.965 C 80.514 81.811, 80.498 81.811, 80.189 83.839 C 80.017 84.960, 79.117 86.078, 78.189 86.323 C 76.682 86.720, 76.692 86.780, 78.281 86.884 C 79.261 86.948, 80.315 86.342, 80.624 85.538 C 81.111 84.269, 81.504 84.284, 83.585 85.648 C 86.785 87.745, 88.669 86.840, 89.480 82.818 C 90.690 76.816, 91.152 75.880, 93.338 74.999 C 94.966 74.342, 95.082 74.111, 93.807 74.063 C 92.875 74.029, 91.413 75, 90.557 76.223 L 89 78.445 89 76.223 C 89 74.550, 88.443 74.029, 86.750 74.116 C 85.057 74.203, 84.933 74.345, 86.250 74.689 M 238.500 77.500 C 238.500 78.770, 238.838 79.600, 239.250 79.345 C 239.662 79.091, 240 78.260, 240 77.500 C 240 76.740, 239.662 75.909, 239.250 75.655 C 238.838 75.400, 238.500 76.230, 238.500 77.500 M 35.415 78.138 C 34.981 78.840, 35.123 79.042, 35.770 78.642 C 36.363 78.276, 37.055 78.769, 37.308 79.738 C 37.719 81.313, 37.780 81.321, 37.884 79.809 C 38.029 77.689, 36.381 76.574, 35.415 78.138 M 63 78.500 C 63 79.325, 63.375 80, 63.833 80 C 64.292 80, 64.667 79.325, 64.667 78.500 C 64.667 77.675, 64.292 77, 63.833 77 C 63.375 77, 63 77.675, 63 78.500 M 95.680 79.250 C 96.077 81.058, 95.963 81.205, 95.102 80 C 94.171 78.696, 94.029 78.721, 94.015 80.191 C 93.995 82.454, 95.644 83.369, 96.364 81.494 C 97.108 79.554, 99.896 79.566, 100.643 81.513 C 102.164 85.476, 95.398 87.542, 91.683 84.250 C 90.131 82.875, 89.810 82.822, 90.186 84 C 91.295 87.483, 100.088 87.820, 101.389 84.429 C 102.496 81.543, 101.038 78.177, 98.920 78.731 C 97.864 79.007, 97 78.731, 97 78.117 C 97 77.502, 96.592 77, 96.094 77 C 95.595 77, 95.409 78.013, 95.680 79.250 M 168.116 80.098 C 167.502 81.858, 167.032 83.794, 167.070 84.399 C 167.109 85.005, 167.786 83.739, 168.574 81.587 C 169.363 79.435, 169.833 77.500, 169.620 77.286 C 169.406 77.073, 168.729 78.338, 168.116 80.098 M 172.751 78.845 C 172.462 79.949, 172.811 80.667, 173.637 80.667 C 175.153 80.667, 175.498 78.426, 174.114 77.570 C 173.626 77.269, 173.013 77.842, 172.751 78.845 M 208.851 81.666 C 209.306 87.296, 211 87.297, 211 81.667 C 211 78.867, 210.558 77.333, 209.750 77.333 C 208.888 77.333, 208.609 78.679, 208.851 81.666 M 214 81.713 C 214 84.071, 214.450 86, 215 86 C 215.550 86, 216 84.237, 216 82.083 C 216 79.873, 216.545 77.957, 217.250 77.685 C 217.938 77.420, 217.488 77.254, 216.250 77.315 C 214.284 77.412, 214 77.966, 214 81.713 M 224.975 81.796 L 225.458 86.500 225.797 82.618 C 225.984 80.483, 225.767 78.367, 225.315 77.915 C 224.863 77.463, 224.710 79.210, 224.975 81.796 M 254.851 81.745 C 255.291 87.088, 257 87.357, 257 82.083 C 257 79.860, 257.541 77.969, 258.250 77.710 C 258.938 77.459, 258.375 77.306, 257 77.371 C 254.685 77.481, 254.526 77.804, 254.851 81.745 M 265.857 81.676 C 266.068 84.327, 266.544 85.738, 266.986 85.023 C 267.530 84.143, 267.947 84.106, 268.434 84.893 C 268.810 85.502, 269.654 85.986, 270.309 85.970 C 270.964 85.953, 270.712 85.481, 269.750 84.920 C 267.714 83.734, 267.446 80.021, 269.250 77.998 C 270.295 76.827, 270.241 76.790, 268.926 77.774 C 267.956 78.500, 266.996 78.596, 266.423 78.023 C 265.850 77.450, 265.633 78.852, 265.857 81.676 M 197.384 81.442 C 197.080 82.234, 197.042 83.697, 197.299 84.692 C 197.601 85.854, 197.852 85.429, 198.002 83.500 L 198.237 80.500 199 83.500 L 199.763 86.500 199.882 83.250 C 200.002 79.958, 198.399 78.797, 197.384 81.442 M 203.118 83.167 L 203.237 86.500 203.954 83.500 C 204.661 80.539, 204.677 80.533, 205.182 83 L 205.693 85.500 205.596 83.077 C 205.543 81.745, 204.938 80.470, 204.250 80.244 C 203.404 79.966, 203.038 80.910, 203.118 83.167 M 219.384 81.442 C 219.080 82.234, 219.042 83.697, 219.299 84.692 C 219.601 85.854, 219.852 85.429, 220.002 83.500 L 220.237 80.500 221 83.500 L 221.763 86.500 221.882 83.250 C 222.002 79.958, 220.399 78.797, 219.384 81.442 M 260.384 81.442 C 260.080 82.234, 260.042 83.697, 260.299 84.692 C 260.601 85.854, 260.852 85.429, 261.002 83.500 L 261.237 80.500 262 83.500 L 262.763 86.500 262.882 83.250 C 263.002 79.958, 261.399 78.797, 260.384 81.442 M 46.022 83.357 C 46.006 85.481, 45.615 86.066, 44.500 85.638 C 43.675 85.322, 43 85.499, 43 86.031 C 43 87.599, 46.009 87.139, 46.648 85.474 C 47.100 84.298, 47.550 84.212, 48.617 85.097 C 50.120 86.344, 53 84.760, 53 82.686 C 53 82.099, 52.331 82.491, 51.513 83.559 C 50.057 85.458, 49.982 85.446, 48.035 83 L 46.044 80.500 46.022 83.357 M 180.667 82.667 C 180.300 83.033, 180 83.783, 180 84.333 C 180 84.883, 180.296 85.037, 180.658 84.675 C 181.020 84.313, 182.032 84.576, 182.908 85.259 C 184.343 86.377, 184.355 86.302, 183.033 84.500 C 182.226 83.400, 181.514 82.388, 181.450 82.250 C 181.386 82.112, 181.033 82.300, 180.667 82.667 M 63 84.617 C 63 85.741, 62.391 86.074, 61 85.710 C 59.900 85.423, 59 85.595, 59 86.094 C 59 87.841, 62.941 86.980, 64 85 C 64.726 83.644, 64.737 83, 64.035 83 C 63.466 83, 63 83.727, 63 84.617" stroke="none" fill="#faf9f8" fill-rule="evenodd"/></svg>